<svg width="489" height="495" viewBox="0 0 489 495" fill="none" xmlns="http://www.w3.org/2000/svg">
<path d="M244.5 0C109.676 0 0 111.036 0 247.5C0 383.964 109.69 495 244.5 495C379.31 495 489 383.964 489 247.5C489 111.036 379.324 0 244.5 0ZM244.5 444.595C218.08 444.595 192.89 439.221 169.907 429.533V349.922H170.55C194.427 367.629 219.212 374.927 246.819 374.927C310.976 374.927 361.022 323.999 369.027 272.844H316.621C304.34 307.338 273.644 323.391 249.18 323.391C208.258 323.391 183.682 299.051 174.405 272.844H119.847V398.786C77.0668 362.609 49.7937 308.23 49.7937 247.515C49.7937 138.841 137.144 50.4191 244.5 50.4191C270.92 50.4191 296.096 55.794 319.093 65.4818V144.639H318.018C294.811 127.965 270.04 119.634 243.676 119.634C179.268 119.634 130.298 167.734 119.847 222.184H171.918C182.271 193.616 209.529 171.171 244.332 171.171C274.902 171.171 303.431 191.48 314.259 222.184H369.139V96.2564C411.92 132.434 439.191 186.813 439.191 247.528C439.191 356.202 351.857 444.623 244.486 444.623L244.5 444.595Z" fill="black"/>
</svg>
