<?xml version="1.0" encoding="UTF-8"?>
<svg version="1.1" xmlns="http://www.w3.org/2000/svg" width="800" height="800">
<path d="M0 0 C1.80597656 -0.00855011 1.80597656 -0.00855011 3.6484375 -0.01727295 C6.18976989 -0.02666676 8.73111414 -0.03323439 11.27246094 -0.03710938 C15.05947752 -0.04670891 18.84592524 -0.07774347 22.6328125 -0.109375 C44.30308895 -0.2036335 65.8067913 1.444499 87.125 5.453125 C88.26340332 5.66364502 89.40180664 5.87416504 90.57470703 6.09106445 C176.72059806 22.51753839 265.55263323 68.52345247 320.3125 138.8984375 C322.05289512 141.11143991 323.89182515 143.14640234 325.8125 145.203125 C336.47942655 157.08365397 345.59304744 170.72554332 354.125 184.203125 C354.57520508 184.9142041 355.02541016 185.6252832 355.48925781 186.35791016 C383.06192211 230.3059779 401.44841326 278.22812666 410.875 329.203125 C411.06167236 330.19586426 411.24834473 331.18860352 411.44067383 332.21142578 C415.15967685 353.53014718 416.62910668 374.93821313 416.51611328 396.55761719 C416.5000012 400.20285417 416.51610466 403.84698306 416.53515625 407.4921875 C416.55450178 428.87258132 414.82957154 450.17238244 410.875 471.203125 C410.66447998 472.34152832 410.45395996 473.47993164 410.23706055 474.65283203 C397.84942813 539.61769522 370.18291895 601.01227555 328.125 652.203125 C327.67560059 652.7501709 327.22620117 653.2972168 326.76318359 653.86083984 C316.94378096 665.74931845 306.4790719 676.94303288 295.625 687.890625 C294.3258667 689.20933594 294.3258667 689.20933594 293.00048828 690.5546875 C287.77032802 695.79173862 282.35747439 700.60907428 276.58056641 705.2355957 C274.62928634 706.79906419 272.72069099 708.38496926 270.83984375 710.03125 C256.37872345 722.64150962 240.52765705 733.29462131 224.125 743.203125 C223.32819824 743.68604004 222.53139648 744.16895508 221.71044922 744.66650391 C189.29234471 764.15119646 154.65824561 778.4529013 118.125 788.203125 C116.57111572 788.61836426 116.57111572 788.61836426 114.98583984 789.04199219 C88.21747562 796.0345789 59.93465258 800.30109696 32.25 800.40625 C31.04601562 800.41195007 29.84203125 800.41765015 28.6015625 800.42352295 C26.06023011 800.43291676 23.51888586 800.43948439 20.97753906 800.44335938 C17.19052248 800.45295891 13.40407476 800.48399347 9.6171875 800.515625 C-78.99018615 800.89773374 -167.50337531 768.34331896 -235.875 712.203125 C-236.41672852 711.75904297 -236.95845703 711.31496094 -237.51660156 710.85742188 C-249.50472101 700.9798368 -260.74658605 690.41204219 -271.75 679.453125 C-272.94520264 678.26493164 -272.94520264 678.26493164 -274.16455078 677.05273438 C-278.93986767 672.26439481 -283.50008867 667.35922422 -287.875 662.203125 C-288.41785645 661.56697266 -288.96071289 660.93082031 -289.52001953 660.27539062 C-303.42557669 643.87121093 -315.75731861 626.60746947 -326.875 608.203125 C-327.35791504 607.40632324 -327.84083008 606.60952148 -328.33837891 605.78857422 C-354.89395306 561.60612814 -371.77272658 513.14972015 -380.125 462.328125 C-380.27614258 461.41595215 -380.42728516 460.5037793 -380.58300781 459.56396484 C-383.43028597 441.19805664 -384.22348127 422.94450683 -384.19067383 404.37670898 C-384.18752449 400.66945642 -384.21103924 396.96301357 -384.23632812 393.25585938 C-384.29345742 371.74765725 -382.60341055 350.3606454 -378.625 329.203125 C-378.41447998 328.06472168 -378.20395996 326.92631836 -377.98706055 325.75341797 C-364.66298001 255.87750944 -333.19758624 187.27320886 -284.359375 134.8984375 C-282.43200535 132.80742326 -280.57069163 130.69131436 -278.71875 128.53515625 C-274.23749297 123.39751694 -269.44222191 118.58632254 -264.625 113.765625 C-263.74714844 112.87552734 -262.86929688 111.98542969 -261.96484375 111.06835938 C-256.65621086 105.7480677 -251.17915587 100.83660966 -245.29394531 96.16064453 C-243.06489455 94.35679623 -240.96248905 92.47987573 -238.875 90.515625 C-176.21630746 34.33501475 -83.6366044 0.31767215 0 0 Z " fill="#D20A11" transform="translate(383.875,-0.203125)"/>
<path d="M0 0 C21.45 0 42.9 0 65 0 C65.33 44.88 65.66 89.76 66 136 C68.97 132.7 71.94 129.4 75 126 C94.39381753 107.73123818 117.74385394 99.09854233 144.140625 99.78515625 C164.28093077 100.57643879 183.55123123 106.65405819 199 120 C199.67933594 120.57234375 200.35867188 121.1446875 201.05859375 121.734375 C215.55981879 134.96356276 221.66114455 156.01253431 223 175 C223.14246124 180.87916258 223.12657734 186.75640394 223.11352539 192.63696289 C223.113243 194.42151895 223.11340227 196.20607512 223.1139679 197.9906311 C223.11425383 202.81433475 223.10839005 207.63801333 223.10139394 212.46171117 C223.09512646 217.51055984 223.09455392 222.55940914 223.09336853 227.60826111 C223.09026521 237.15965328 223.08206531 246.71103395 223.07201904 256.26242107 C223.06082685 267.14029308 223.05533963 278.01816565 223.05032361 288.89604199 C223.03988184 311.26403583 223.0215488 333.63201391 223 356 C201.55 356 180.1 356 158 356 C157.98018066 351.15127197 157.96036133 346.30254395 157.93994141 341.30688477 C157.87288674 325.24558546 157.79534634 309.18434922 157.71247292 293.12312412 C157.66250503 283.38995981 157.6160613 273.65680325 157.578125 263.92358398 C157.54502272 255.43297029 157.50509313 246.94241977 157.45720994 238.4518761 C157.43212478 233.96270275 157.41029212 229.47357033 157.39665604 224.98434639 C157.38367028 220.74491262 157.3614448 216.50562055 157.33261681 212.26626587 C157.32366818 210.72375474 157.31788125 209.18122089 157.31578636 207.63868523 C157.30303425 199.66350586 157.01620864 191.79015576 156.14413452 183.85826111 C156.07212503 183.16800294 156.00011554 182.47774476 155.92592394 181.76656967 C154.88218266 173.20878376 151.46031847 165.93476238 145.1875 160 C134.93059254 151.97455714 123.64529844 151.29004151 111 152 C98.49096326 153.57810764 86.98837354 159.04130376 79 169 C73.45163491 176.67650513 70.64181875 184.46470611 68.875 193.6875 C68.70613281 194.50927734 68.53726563 195.33105469 68.36328125 196.17773438 C66.14501266 207.45247747 65.84678499 218.75245872 65.79467773 230.21386719 C65.78507157 231.59493281 65.77506002 232.97599565 65.76467896 234.35705566 C65.73791985 238.06695261 65.71675559 241.77686189 65.69667697 245.48680019 C65.67463596 249.37853107 65.6473369 253.27022518 65.62062073 257.16192627 C65.57093644 264.51386122 65.52590881 271.86581684 65.48259836 279.2177918 C65.4237267 289.16492553 65.35757201 299.11201073 65.29184818 309.0591011 C65.18865362 324.70603459 65.09511233 340.35301047 65 356 C43.55 356 22.1 356 0 356 C0 238.52 0 121.04 0 0 Z " fill="#FEFDFD" transform="translate(416,206)"/>
<path d="M0 0 C21.12 0 42.24 0 64 0 C64.33 44.88 64.66 89.76 65 136 C69.95 131.05 74.9 126.1 80 121 C97.79826526 107.52654686 116.76525192 99.55349128 139.25 99.6875 C140.75542358 99.69595947 140.75542358 99.69595947 142.29125977 99.70458984 C163.19315973 100.04358493 185.37832632 107.08737262 200.84375 121.65625 C220.27367464 142.7757333 223.35461841 170.49104163 223.22705078 197.97265625 C223.22648498 199.70898431 223.22680652 201.44531284 223.22793579 203.18164062 C223.22850371 207.84174473 223.21684146 212.50174341 223.20278788 217.16182327 C223.19018583 222.05180561 223.18910262 226.94179104 223.18673706 231.83178711 C223.18054989 241.06776155 223.16417692 250.30368797 223.14403808 259.53964138 C223.1215925 270.06459381 223.11066399 280.58954867 223.10064721 291.11451912 C223.07980788 312.7430454 223.04316667 334.37150596 223 356 C201.55 356 180.1 356 158 356 C157.98018066 351.24215088 157.96036133 346.48430176 157.93994141 341.58227539 C157.87288058 325.8203298 157.79534022 310.05844844 157.71247292 294.29657841 C157.66250951 284.74501686 157.61606579 275.1934632 157.578125 265.6418457 C157.54501799 257.30944434 157.50508593 248.97710729 157.45720994 240.64477724 C157.43212939 236.23944099 157.41029547 231.83414638 157.39665604 227.42875862 C157.38366597 223.26811802 157.36143625 219.10762163 157.33261681 214.94706154 C157.32367144 213.43357673 157.31788205 211.92006879 157.31578636 210.40655899 C157.30288292 202.49130197 156.99064442 194.70422645 156.08163452 186.83641052 C156.00124612 186.13988123 155.92085773 185.44335194 155.83803332 184.7257157 C154.49271332 174.06510509 151.14436144 166.17685751 143 159 C132.04319224 151.05437167 118.72785278 150.72459618 105.72265625 152.4296875 C93.96005332 154.93368444 83.87733074 161.09248466 77 171 C64.04389667 191.08595075 65.38668755 215.43811379 65.39249516 238.41863656 C65.38932195 242.56660976 65.36361436 246.71444901 65.34051514 250.86235046 C65.30028364 258.68149512 65.27969268 266.50055709 65.26654124 274.31978911 C65.24755758 284.91097595 65.19745622 295.50201564 65.14929771 306.09310246 C65.07445774 322.72872715 65.04052083 339.36417423 65 356 C43.55 356 22.1 356 0 356 C0 238.52 0 121.04 0 0 Z " fill="#FEFEFE" transform="translate(161,206)"/>
</svg>
